<svg width="90" height="90" viewBox="0 0 90 90" fill="none" xmlns="http://www.w3.org/2000/svg">
<path fill-rule="evenodd" clip-rule="evenodd" d="M80.42 60.6104C74.3371 74.4565 60.5012 84.1309 44.4025 84.1309C23.3382 84.1309 6.14249 67.5679 5.12813 46.7551L2.59217 49.7798C2.07149 50.4008 1.14596 50.4822 0.52494 49.9615C-0.0960774 49.4408 -0.177414 48.5153 0.343269 47.8942L6.52105 40.5259L13.7529 47.2685C14.3456 47.8211 14.3782 48.7497 13.8255 49.3424C13.2729 49.9352 12.3443 49.9677 11.7516 49.415L8.03307 45.9481C8.63483 65.5171 24.6876 81.1961 44.4025 81.1961C59.2953 81.1961 72.1016 72.2487 77.733 59.43C78.059 58.688 78.9247 58.3508 79.6667 58.6768C80.4087 59.0027 80.7459 59.8685 80.42 60.6104ZM48.1142 57.4348H40.5934V63.6086H36.3054V57.4348H31.6582V53.8876H36.3054V50.812H31.6582V47.2873H36.3054V30.921H48.3612C51.8634 30.921 54.6397 31.8115 56.6902 33.5926C58.7406 35.3736 59.7659 37.7833 59.7659 40.8216C59.7659 44.0095 58.7781 46.4716 56.8024 48.2077C54.8418 49.9289 52.0505 50.797 48.4285 50.812H40.5934V53.8876H48.1142V57.4348ZM40.5934 47.2873H48.3612C50.681 47.2873 52.4471 46.741 53.6594 45.6484C54.8717 44.5558 55.4779 42.9618 55.4779 40.8665C55.4779 38.9657 54.8493 37.4316 53.5921 36.2641C52.3348 35.0818 50.6361 34.4831 48.4959 34.4681H40.5934V47.2873ZM8.38649 29.8583C14.4693 16.0122 28.3053 6.33787 44.404 6.33787C65.5499 6.33787 82.7973 23.0295 83.6894 43.9559L86.9351 40.3996C87.4814 39.801 88.4095 39.7586 89.0081 40.305C89.6067 40.8513 89.6491 41.7794 89.1028 42.378L82.3169 49.8132L74.3633 43.5308C73.7273 43.0285 73.619 42.1057 74.1213 41.4697C74.6236 40.8338 75.5464 40.7255 76.1824 41.2278L80.7823 44.8612C80.3576 25.1339 64.2331 9.27265 44.404 9.27265C29.5112 9.27265 16.7049 18.22 11.0734 31.0387C10.7474 31.7807 9.88171 32.1179 9.13974 31.792C8.39777 31.466 8.06053 30.6003 8.38649 29.8583Z" fill="#FB6900"/>
</svg>
